<svg width="14" height="14" viewBox="0 0 14 14" fill="none" xmlns="http://www.w3.org/2000/svg">
<path d="M6.33337 0.333252C9.64537 0.333252 12.3334 3.02125 12.3334 6.33325C12.3334 9.64525 9.64537 12.3333 6.33337 12.3333C3.02137 12.3333 0.333374 9.64525 0.333374 6.33325C0.333374 3.02125 3.02137 0.333252 6.33337 0.333252ZM6.33337 10.9999C8.91137 10.9999 11 8.91125 11 6.33325C11 3.75459 8.91137 1.66659 6.33337 1.66659C3.75471 1.66659 1.66671 3.75459 1.66671 6.33325C1.66671 8.91125 3.75471 10.9999 6.33337 10.9999ZM11.99 11.0473L13.876 12.9326L12.9327 13.8759L11.0474 11.9899L11.99 11.0473Z" fill="#C5CAD2"/>
</svg>
