<svg width="431" height="50" viewBox="0 0 431 50" fill="none" xmlns="http://www.w3.org/2000/svg">
<path d="M60.2804 34.1524H60.9574V40.1739H60.1425V35.5604L56.5476 40.1739H55.8945V34.1524H56.6914V38.7898L60.2804 34.1524Z" fill="white"/>
<path d="M68.6009 34.1523V40.1739H67.804V35.3806L65.701 38.8018H65.5991L63.4961 35.3686V40.1619H62.6992V34.1523H63.6159L65.6531 37.4537L67.6842 34.1523H68.6009Z" fill="white"/>
<path d="M73.1339 34.0085C73.5428 33.9948 73.9496 34.0733 74.324 34.2382C74.6984 34.4031 75.0309 34.6502 75.2969 34.9611C75.838 35.5762 76.1307 36.3708 76.1177 37.19C76.1245 37.3157 76.1245 37.4417 76.1177 37.5675H70.8092C70.8364 37.8481 70.9187 38.1206 71.0513 38.3694C71.1839 38.6182 71.3643 38.8384 71.5821 39.0174C72.0428 39.3824 72.6184 39.5714 73.2058 39.5507C73.6232 39.565 74.0368 39.4678 74.4041 39.2691C74.7087 39.091 74.9577 38.8317 75.1231 38.5201L75.8241 38.9335C75.5568 39.3596 75.183 39.7086 74.7397 39.9461C74.2576 40.1985 73.72 40.3262 73.1759 40.3176C72.7499 40.3339 72.3251 40.2631 71.9274 40.1096C71.5298 39.9561 71.1676 39.7231 70.8631 39.4248C70.5676 39.1282 70.336 38.7743 70.1825 38.3848C70.0289 37.9953 69.9568 37.5785 69.9704 37.16C69.9589 36.7447 70.031 36.3313 70.1822 35.9443C70.3335 35.5573 70.561 35.2046 70.8511 34.9072C71.148 34.6066 71.5044 34.3714 71.8976 34.2166C72.2907 34.0618 72.7118 33.9909 73.1339 34.0085ZM73.1339 34.7754C72.5635 34.754 72.0062 34.9499 71.5746 35.3236C71.1431 35.6973 70.8695 36.2209 70.8092 36.7886H75.2969C75.251 36.22 74.9895 35.6906 74.5659 35.3086C74.1714 34.9591 73.6609 34.769 73.1339 34.7754Z" fill="white"/>
<path d="M81.7134 34.1523H82.5103V40.1739H81.7134V37.5496H78.2383V40.1739H77.4414V34.1523H78.2383V36.7587H81.7134V34.1523Z" fill="white"/>
<path d="M88.634 34.1523H89.3051V40.1739H88.5082V35.5604L84.9132 40.1978H84.2422V34.1523H85.0391V38.7898L88.634 34.1523Z" fill="white"/>
<path d="M95.087 39.3774H99.1792V40.1743H94.2422V31.7441H99.1193V32.565H95.087V35.5608H98.8197V36.3576H95.087V39.3774Z" fill="white"/>
<path d="M104.397 37.0759C104.695 37.1658 104.955 37.3536 105.133 37.6092C105.311 37.8647 105.398 38.1729 105.38 38.484C105.386 38.7063 105.345 38.9275 105.262 39.1337C105.178 39.3399 105.053 39.5266 104.894 39.6823C104.704 39.8509 104.482 39.9801 104.241 40.0624C104.001 40.1446 103.746 40.1784 103.492 40.1616H100.562V34.1521H103.283C103.777 34.1218 104.264 34.2826 104.643 34.6014C104.8 34.7503 104.924 34.9309 105.007 35.1312C105.09 35.3316 105.129 35.5472 105.122 35.7638C105.137 36.0286 105.077 36.2922 104.949 36.5244C104.82 36.7565 104.629 36.9477 104.397 37.0759ZM103.283 34.919H101.389V36.7584H103.283C103.978 36.7584 104.331 36.4468 104.331 35.8177C104.337 35.6952 104.315 35.5729 104.268 35.4599C104.22 35.3469 104.147 35.246 104.056 35.1646C103.837 34.9911 103.562 34.9038 103.283 34.919ZM103.522 39.4007C103.816 39.4195 104.106 39.33 104.337 39.149C104.433 39.0575 104.507 38.9464 104.556 38.8234C104.605 38.7003 104.626 38.5681 104.619 38.436C104.624 38.3112 104.602 38.1867 104.553 38.0716C104.504 37.9566 104.431 37.8538 104.337 37.771C104.105 37.5921 103.815 37.5047 103.522 37.5253H101.389V39.4007H103.522Z" fill="white"/>
<path d="M112.523 35.0215C113.08 35.5952 113.392 36.3636 113.392 37.1635C113.392 37.9634 113.08 38.7318 112.523 39.3055C111.91 39.9074 111.098 40.2635 110.24 40.3061V42.5829H109.443V40.3061C108.584 40.2638 107.769 39.9078 107.154 39.3055C106.597 38.7318 106.285 37.9634 106.285 37.1635C106.285 36.3636 106.597 35.5952 107.154 35.0215C107.768 34.4168 108.583 34.0604 109.443 34.0209V31.7441H110.24V34.0209C111.099 34.0607 111.912 34.4172 112.523 35.0215ZM107.73 35.5668C107.322 35.9983 107.094 36.5697 107.094 37.1635C107.094 37.7573 107.322 38.3287 107.73 38.7603C108.194 39.2143 108.807 39.4846 109.455 39.5212V34.7998C108.803 34.8341 108.185 35.1046 107.718 35.5608L107.73 35.5668ZM110.252 39.5212C110.898 39.4837 111.509 39.2134 111.972 38.7603C112.38 38.3287 112.607 37.7573 112.607 37.1635C112.607 36.5697 112.38 35.9983 111.972 35.5668C111.51 35.1119 110.899 34.8395 110.252 34.7998V39.5212Z" fill="white"/>
<path d="M118.003 34.008C118.412 34.0015 118.818 34.079 119.197 34.2356C119.575 34.3922 119.917 34.6247 120.202 34.9187C120.782 35.5205 121.106 36.3238 121.106 37.1595C121.106 37.9953 120.782 38.7985 120.202 39.4004C119.917 39.6954 119.576 39.929 119.197 40.0867C118.819 40.2444 118.413 40.3228 118.003 40.3171C117.516 40.337 117.032 40.2244 116.604 39.9912C116.175 39.7581 115.818 39.4131 115.57 38.993V42.5879H114.773V34.1518H115.57V35.3501C115.815 34.9258 116.171 34.5764 116.599 34.3398C117.028 34.1033 117.514 33.9885 118.003 34.008ZM116.259 38.8552C116.708 39.2979 117.313 39.5461 117.943 39.5461C118.573 39.5461 119.178 39.2979 119.627 38.8552C119.965 38.5212 120.196 38.0943 120.291 37.6285C120.386 37.1628 120.341 36.6793 120.16 36.2396C119.98 35.7998 119.672 35.4237 119.278 35.159C118.883 34.8942 118.418 34.7529 117.943 34.7529C117.468 34.7529 117.003 34.8942 116.608 35.159C116.213 35.4237 115.906 35.7998 115.726 36.2396C115.545 36.6793 115.5 37.1628 115.595 37.6285C115.69 38.0943 115.921 38.5212 116.259 38.8552Z" fill="white"/>
<path d="M127.548 39.4058C126.946 39.9893 126.14 40.3155 125.301 40.3155C124.463 40.3155 123.657 39.9893 123.054 39.4058C122.464 38.8071 122.133 37.9999 122.133 37.159C122.133 36.318 122.464 35.5108 123.054 34.9121C123.499 34.4748 124.063 34.1783 124.675 34.0597C125.287 33.9412 125.921 34.0059 126.496 34.2458C127.072 34.4856 127.564 34.8899 127.911 35.4081C128.258 35.9263 128.444 36.5354 128.447 37.159C128.459 37.575 128.385 37.9891 128.23 38.3755C128.076 38.762 127.844 39.1126 127.548 39.4058ZM123.618 38.8546C124.066 39.2973 124.671 39.5456 125.301 39.5456C125.932 39.5456 126.536 39.2973 126.985 38.8546C127.323 38.5207 127.555 38.0937 127.65 37.6279C127.745 37.1622 127.699 36.6787 127.518 36.239C127.338 35.7992 127.031 35.4231 126.636 35.1584C126.241 34.8937 125.777 34.7523 125.301 34.7523C124.826 34.7523 124.361 34.8937 123.967 35.1584C123.572 35.4231 123.265 35.7992 123.084 36.239C122.904 36.6787 122.858 37.1622 122.953 37.6279C123.048 38.0937 123.279 38.5207 123.618 38.8546Z" fill="white"/>
<path d="M132.639 40.317C132.154 40.316 131.676 40.2034 131.242 39.9879C130.808 39.7725 130.429 39.4599 130.135 39.0745C129.841 38.689 129.64 38.2411 129.547 37.7654C129.454 37.2896 129.472 36.7988 129.599 36.3311C129.726 35.8633 129.959 35.4311 130.28 35.0679C130.601 34.7048 131.002 34.4204 131.451 34.2369C131.899 34.0534 132.384 33.9757 132.868 34.0098C133.351 34.0438 133.82 34.1888 134.239 34.4333C134.699 34.6898 135.068 35.0836 135.294 35.5598L134.646 35.9312C134.485 35.5699 134.212 35.2697 133.868 35.0744C133.505 34.8588 133.091 34.7469 132.669 34.7509C132.247 34.7442 131.83 34.8491 131.462 35.0551C131.093 35.2611 130.785 35.5609 130.57 35.9241C130.354 36.2872 130.239 36.7009 130.234 37.1232C130.23 37.5455 130.338 37.9614 130.546 38.3288C130.754 38.6962 131.056 39.0021 131.42 39.2154C131.785 39.4288 132.199 39.5421 132.621 39.5438C133.043 39.5455 133.459 39.4357 133.825 39.2253C134.191 39.0149 134.495 38.7115 134.706 38.3458L135.365 38.7353C135.12 39.2157 134.738 39.6135 134.269 39.8797C133.775 40.1706 133.212 40.3218 132.639 40.317Z" fill="white"/>
<path d="M140.944 34.1523H141.627V40.1739H140.831V35.5604L137.236 40.1978H136.559V34.1523H137.355V38.7898L140.944 34.1523Z" fill="white"/>
<path d="M147.621 34.1523H148.418V40.1739H147.621V37.5496H144.158V40.1739H143.367V34.1523H144.164V36.7587H147.621V34.1523Z" fill="white"/>
<path d="M154.554 34.1523H155.231V40.1739H154.434V35.5604L150.839 40.1978H150.168V34.1523H150.959V38.7898L154.554 34.1523Z" fill="white"/>
<path d="M161.357 34.1523H162.028V40.1739H161.237V35.5604L157.642 40.1978H156.965V34.1523H157.762V38.7898L161.357 34.1523Z" fill="white"/>
<path d="M172.986 31.7441V40.1743H172.148V32.565H167.81V40.1743H166.965V31.7441H172.986Z" fill="white"/>
<path d="M179.909 39.4058C179.309 39.9903 178.504 40.3173 177.665 40.3173C176.827 40.3173 176.022 39.9903 175.422 39.4058C174.831 38.8071 174.5 37.9999 174.5 37.159C174.5 36.318 174.831 35.5108 175.422 34.9121C175.866 34.4748 176.43 34.1783 177.042 34.0597C177.654 33.9412 178.288 34.0059 178.864 34.2458C179.439 34.4856 179.931 34.8899 180.278 35.4081C180.625 35.9263 180.812 36.5354 180.814 37.159C180.828 37.5758 180.755 37.991 180.599 38.3779C180.443 38.7648 180.208 39.1149 179.909 39.4058ZM175.979 38.8546C176.428 39.2991 177.034 39.5485 177.665 39.5485C178.297 39.5485 178.903 39.2991 179.352 38.8546C179.79 38.4001 180.035 37.7933 180.035 37.162C180.035 36.5306 179.79 35.9238 179.352 35.4693C178.903 35.0248 178.297 34.7754 177.665 34.7754C177.034 34.7754 176.428 35.0248 175.979 35.4693C175.531 35.9186 175.279 36.5273 175.279 37.162C175.279 37.7966 175.531 38.4053 175.979 38.8546Z" fill="white"/>
<path d="M186.912 34.1523V40.1739H186.115V34.9193H183.395V37.6095C183.475 38.3458 183.271 39.085 182.826 39.6766C182.616 39.8706 182.366 40.0159 182.094 40.1018C181.821 40.1878 181.533 40.2124 181.25 40.1739V39.4249C181.433 39.4629 181.623 39.4531 181.802 39.3965C181.98 39.3398 182.141 39.2382 182.269 39.1014C182.538 38.6533 182.654 38.1294 182.598 37.6095V34.1523H186.912Z" fill="white"/>
<path d="M193.712 39.4063C193.11 39.9898 192.304 40.3161 191.465 40.3161C190.627 40.3161 189.821 39.9898 189.219 39.4063C188.628 38.8076 188.297 38.0004 188.297 37.1595C188.297 36.3185 188.628 35.5114 189.219 34.9126C189.662 34.4724 190.226 34.1733 190.839 34.0532C191.452 33.933 192.087 33.9972 192.664 34.2375C193.241 34.4778 193.734 34.8836 194.08 35.4036C194.427 35.9236 194.611 36.5346 194.611 37.1595C194.623 37.5756 194.55 37.9897 194.395 38.3763C194.24 38.7628 194.008 39.1134 193.712 39.4063ZM189.776 38.8551C189.995 39.0794 190.259 39.2563 190.549 39.3748C190.84 39.4933 191.152 39.5509 191.465 39.5441C191.779 39.5524 192.092 39.4954 192.382 39.3768C192.673 39.2582 192.936 39.0805 193.155 38.8551C193.492 38.5208 193.723 38.0938 193.817 37.6283C193.912 37.1628 193.865 36.6798 193.685 36.2405C193.504 35.8013 193.197 35.4256 192.802 35.1613C192.408 34.8969 191.943 34.7558 191.468 34.7558C190.993 34.7558 190.529 34.8969 190.135 35.1613C189.74 35.4256 189.433 35.8013 189.252 36.2405C189.071 36.6798 189.025 37.1628 189.119 37.6283C189.214 38.0938 189.444 38.5208 189.782 38.8551H189.776Z" fill="white"/>
<path d="M200.945 39.4009H201.903V41.7976H201.124V40.1739H196.02V34.1523H196.81V39.4009H200.16V34.1523H200.945V39.4009Z" fill="white"/>
<path d="M208.05 40.1739H206.99L203.994 37.268V40.1739H203.203V34.1523H203.994V36.8126L206.864 34.1523H207.942L204.839 37.0403L208.05 40.1739Z" fill="white"/>
<path d="M213.641 39.4065C213.039 39.99 212.233 40.3163 211.394 40.3163C210.555 40.3163 209.75 39.99 209.147 39.4065C208.56 38.8063 208.23 37.9997 208.23 37.1597C208.23 36.3197 208.56 35.5131 209.147 34.9129C209.751 34.3322 210.556 34.0078 211.394 34.0078C212.232 34.0078 213.037 34.3322 213.641 34.9129C214.232 35.5116 214.563 36.3187 214.563 37.1597C214.563 38.0007 214.232 38.8078 213.641 39.4065ZM209.711 38.8553C210.159 39.2999 210.765 39.5493 211.397 39.5493C212.029 39.5493 212.635 39.2999 213.084 38.8553C213.522 38.4008 213.767 37.7941 213.767 37.1627C213.767 36.5313 213.522 35.9246 213.084 35.4701C212.635 35.0255 212.029 34.7761 211.397 34.7761C210.765 34.7761 210.159 35.0255 209.711 35.4701C209.262 35.9194 209.011 36.5281 209.011 37.1627C209.011 37.7973 209.262 38.406 209.711 38.8553Z" fill="white"/>
<path d="M220.332 34.152H221.003V40.1735H220.212V35.56L216.617 40.1975H215.922V34.152H216.719V38.7894L220.332 34.152ZM216.91 33.1634V32.4863H220.038V33.1634H216.91Z" fill="white"/>
<path d="M46.8901 15.7531L33.4451 8L20 15.7531V31.2472L33.4451 39.0003L46.8901 31.2472V15.7531Z" fill="white"/>
<path d="M63.1805 28.3064H60.9756V20.787H58.0877V28.3064H55.8828V18.666H63.1805V28.3064Z" fill="white"/>
<path d="M65.8049 23.4817C65.8049 22.4899 66.099 21.5203 66.65 20.6956C67.2011 19.8709 67.9843 19.2281 68.9007 18.8485C69.817 18.469 70.8254 18.3697 71.7982 18.5632C72.771 18.7567 73.6645 19.2343 74.3659 19.9356C75.0672 20.637 75.5449 21.5306 75.7384 22.5034C75.9319 23.4762 75.8326 24.4845 75.453 25.4009C75.0734 26.3172 74.4307 27.1005 73.6059 27.6515C72.7812 28.2025 71.8117 28.4967 70.8198 28.4967C70.1597 28.5023 69.505 28.3764 68.8941 28.1263C68.2831 27.8763 67.728 27.5071 67.2612 27.0403C66.7944 26.5735 66.4253 26.0184 66.1752 25.4075C65.9252 24.7965 65.7993 24.1419 65.8049 23.4817ZM73.6298 23.4817C73.6298 22.7365 73.3338 22.0217 72.8068 21.4947C72.2798 20.9677 71.5651 20.6717 70.8198 20.6717C70.0745 20.6717 69.3598 20.9677 68.8328 21.4947C68.3058 22.0217 68.0098 22.7365 68.0098 23.4817C68.0098 24.227 68.3058 24.9417 68.8328 25.4687C69.3598 25.9957 70.0745 26.2918 70.8198 26.2918C71.5651 26.2918 72.2798 25.9957 72.8068 25.4687C73.3338 24.9417 73.6298 24.227 73.6298 23.4817Z" fill="white"/>
<path d="M77.2148 26.2393C78.2094 26.3951 78.8146 26.0896 78.8146 24.4778V18.666H85.4832V28.3064H83.2783V20.787H81.0195V24.382C81.0195 27.8271 78.9943 28.4862 77.2148 28.2945V26.2393Z" fill="white"/>
<path d="M88.1017 23.4817C88.1017 22.4891 88.3963 21.5188 88.9482 20.6937C89.5 19.8686 90.2843 19.2258 91.2017 18.8468C92.1191 18.4678 93.1284 18.3695 94.1017 18.5645C95.075 18.7594 95.9685 19.2389 96.6691 19.942C97.3698 20.6452 97.846 21.5404 98.0374 22.5144C98.2289 23.4884 98.127 24.4973 97.7447 25.4133C97.3624 26.3294 96.7168 27.1113 95.8897 27.6602C95.0627 28.2091 94.0913 28.5002 93.0987 28.4966C92.4401 28.4998 91.7874 28.3722 91.1785 28.1211C90.5696 27.8699 90.0167 27.5004 89.5518 27.0338C89.0869 26.5673 88.7193 26.013 88.4704 25.4032C88.2215 24.7935 88.0962 24.1403 88.1017 23.4817ZM95.9267 23.4817C95.9267 22.7364 95.6307 22.0217 95.1037 21.4947C94.5767 20.9677 93.8619 20.6717 93.1167 20.6717C92.3714 20.6717 91.6567 20.9677 91.1297 21.4947C90.6027 22.0217 90.3066 22.7364 90.3066 23.4817C90.3066 24.227 90.6027 24.9417 91.1297 25.4687C91.6567 25.9957 92.3714 26.2917 93.1167 26.2917C93.8619 26.2917 94.5767 25.9957 95.1037 25.4687C95.6307 24.9417 95.9267 24.227 95.9267 23.4817Z" fill="white"/>
<path d="M109.088 26.1854V30.1698H106.877V28.3064H100.754V18.666H102.953V26.1854H105.847V18.666H108.076V26.1854H109.088Z" fill="white"/>
<path d="M116.932 28.3064L113.841 23.8427V28.3064H111.672V18.666H113.871V22.8601L116.819 18.666H119.329L116.076 23.3634L119.461 28.3064H116.932Z" fill="white"/>
<path d="M127.015 23.0698L123.294 28.3064H121.641V18.666H123.846V23.8966L127.566 18.666H129.22V28.3064H127.015V23.0698Z" fill="white"/>
<path d="M137.624 23.0687L133.904 28.3053H132.25V18.6649H134.437V23.8956L138.158 18.6649H139.829V28.3053H137.624V23.0687ZM133.976 16.0586H138.104V17.8561H133.976V16.0586Z" fill="white"/>
<path d="M153.2 20.787H149.892V28.3064H147.688V18.666H153.2V20.787Z" fill="white"/>
<path d="M154.574 23.4817C154.574 22.4904 154.868 21.5213 155.419 20.6968C155.969 19.8724 156.752 19.2296 157.667 18.8497C158.583 18.4698 159.591 18.3698 160.563 18.5623C161.536 18.7548 162.429 19.2313 163.131 19.9314C163.833 20.6316 164.312 21.524 164.506 22.496C164.701 23.468 164.604 24.476 164.226 25.3926C163.848 26.3091 163.207 27.0932 162.384 27.6457C161.561 28.1982 160.593 28.4943 159.601 28.4967C158.94 28.5038 158.284 28.3791 157.672 28.1298C157.06 27.8805 156.503 27.5115 156.035 27.0446C155.567 26.5776 155.197 26.022 154.946 25.4103C154.695 24.7985 154.569 24.1429 154.574 23.4817ZM162.399 23.4817C162.399 22.7364 162.103 22.0217 161.576 21.4947C161.049 20.9677 160.335 20.6717 159.589 20.6717C158.844 20.6717 158.129 20.9677 157.602 21.4947C157.075 22.0217 156.779 22.7364 156.779 23.4817C156.779 24.227 157.075 24.9417 157.602 25.4687C158.129 25.9957 158.844 26.2918 159.589 26.2918C160.335 26.2918 161.049 25.9957 161.576 25.4687C162.103 24.9417 162.399 24.227 162.399 23.4817Z" fill="white"/>
<path d="M166.795 23.4814C166.777 22.8182 166.895 22.1583 167.141 21.542C167.387 20.9258 167.756 20.366 168.225 19.8968C168.694 19.4277 169.254 19.0589 169.87 18.813C170.486 18.5671 171.146 18.4492 171.81 18.4665C172.633 18.4527 173.445 18.6511 174.169 19.0425C174.893 19.4339 175.505 20.0052 175.944 20.7014L174.062 21.7798C173.832 21.3993 173.503 21.0875 173.111 20.8768C172.719 20.6661 172.278 20.5641 171.834 20.5815C171.454 20.5599 171.075 20.6197 170.72 20.7567C170.366 20.8938 170.045 21.105 169.779 21.3761C169.513 21.6473 169.308 21.9723 169.177 22.3292C169.047 22.686 168.995 23.0667 169.023 23.4455C168.995 23.8246 169.047 24.2054 169.178 24.5626C169.308 24.9198 169.513 25.245 169.779 25.5167C170.045 25.7883 170.366 26.0001 170.72 26.1378C171.074 26.2756 171.454 26.3361 171.834 26.3154C172.278 26.3348 172.72 26.2337 173.113 26.0228C173.505 25.8118 173.833 25.499 174.062 25.1171L175.968 26.2196C175.528 26.9146 174.916 27.4847 174.192 27.8751C173.468 28.2654 172.656 28.4629 171.834 28.4484C171.172 28.4697 170.513 28.3562 169.897 28.115C169.281 27.8739 168.72 27.51 168.249 27.0454C167.778 26.5809 167.406 26.0255 167.156 25.4128C166.906 24.8001 166.783 24.143 166.795 23.4814Z" fill="white"/>
<path d="M185.676 18.666L182.896 25.4664C182.039 27.5515 180.649 28.4023 178.846 28.3064V26.2393C179.226 26.3151 179.62 26.2634 179.968 26.0922C180.316 25.9211 180.597 25.6401 180.769 25.2927L177.684 18.666H179.888L181.776 22.8601L183.471 18.666H185.676Z" fill="white"/>
<path d="M195.672 26.1854V30.1698H193.467V28.3064H188.674V30.1698H186.469V26.1854H187.445C187.889 25.5503 188.206 24.6276 188.206 22.9919V18.666H194.665V26.1854H195.672ZM192.43 26.1854V20.7271H190.381V23.0159C190.455 24.1062 190.249 25.1972 189.782 26.1854H192.43Z" fill="white"/>
<path d="M203.942 26.7906H200.347L199.861 28.3064H197.465L200.742 18.666H203.552L206.836 28.3064H204.439L203.942 26.7906ZM203.277 24.7235L202.144 21.1825L201.012 24.7235H203.277Z" fill="white"/>
<path d="M216.067 21.966C216.066 22.4059 215.977 22.8412 215.805 23.2465C215.634 23.6518 215.384 24.019 215.07 24.3267C214.755 24.6345 214.383 24.8766 213.974 25.0391C213.565 25.2016 213.128 25.2812 212.688 25.2733H211.244V28.305H209.039V18.6646H212.688C213.127 18.6567 213.564 18.7361 213.972 18.8982C214.381 19.0603 214.753 19.302 215.067 19.6091C215.382 19.9162 215.632 20.2827 215.804 20.6873C215.975 21.0918 216.065 21.5265 216.067 21.966ZM213.862 21.966C213.868 21.8051 213.841 21.6448 213.783 21.4945C213.726 21.3442 213.638 21.2071 213.526 21.0914C213.415 20.9756 213.281 20.8836 213.132 20.8208C212.984 20.7579 212.825 20.7256 212.664 20.7257H211.22V23.2062H212.664C212.825 23.2063 212.984 23.174 213.132 23.1111C213.281 23.0483 213.415 22.9563 213.526 22.8405C213.638 22.7248 213.726 22.5877 213.783 22.4374C213.841 22.2872 213.868 22.1268 213.862 21.966Z" fill="white"/>
<path d="M218.064 23.4814C218.047 22.8182 218.165 22.1583 218.411 21.542C218.657 20.9258 219.025 20.366 219.494 19.8968C219.964 19.4277 220.523 19.0589 221.14 18.813C221.756 18.5671 222.416 18.4492 223.079 18.4665C223.902 18.4527 224.715 18.6511 225.439 19.0425C226.163 19.4339 226.774 20.0052 227.213 20.7014L225.314 21.7798C225.083 21.3984 224.753 21.086 224.36 20.8752C223.967 20.6645 223.525 20.563 223.079 20.5815C222.7 20.5599 222.32 20.6197 221.966 20.7567C221.612 20.8938 221.291 21.105 221.024 21.3761C220.758 21.6473 220.553 21.9723 220.423 22.3292C220.293 22.686 220.24 23.0667 220.269 23.4455C220.24 23.8246 220.293 24.2054 220.423 24.5626C220.553 24.9198 220.758 25.245 221.024 25.5167C221.29 25.7883 221.611 26.0001 221.965 26.1378C222.32 26.2756 222.699 26.3361 223.079 26.3154C223.525 26.3352 223.968 26.2344 224.361 26.0235C224.755 25.8126 225.084 25.4995 225.314 25.1171L227.213 26.2196C226.773 26.9146 226.162 27.4847 225.438 27.8751C224.714 28.2654 223.902 28.4629 223.079 28.4484C222.42 28.4655 221.764 28.349 221.151 28.1061C220.538 27.8631 219.981 27.4987 219.512 27.0347C219.044 26.5706 218.674 26.0167 218.425 25.406C218.176 24.7954 218.053 24.1407 218.064 23.4814Z" fill="white"/>
<path d="M236.103 20.787H233.623V28.3064H231.418V20.787H228.938V18.666H236.127L236.103 20.787Z" fill="white"/>
<path d="M245.611 25.4844C245.611 27.192 244.221 28.3064 242.496 28.3064H238.445V18.666H242.22C243.904 18.666 245.264 19.7505 245.264 21.4161C245.273 21.7734 245.203 22.1282 245.058 22.4548C244.913 22.7814 244.697 23.0713 244.425 23.3035C244.796 23.5321 245.1 23.8536 245.308 24.2362C245.516 24.6187 245.621 25.049 245.611 25.4844ZM240.65 20.7271V22.4407H242.22C242.447 22.4407 242.665 22.3504 242.826 22.1897C242.987 22.0291 243.077 21.8111 243.077 21.5839C243.077 21.3567 242.987 21.1387 242.826 20.9781C242.665 20.8174 242.447 20.7271 242.22 20.7271H240.65ZM243.406 25.3166C243.413 25.1947 243.394 25.0727 243.351 24.9585C243.308 24.8443 243.241 24.7403 243.155 24.6534C243.07 24.5665 242.967 24.4985 242.853 24.4538C242.739 24.4091 242.618 24.3887 242.496 24.3939H240.65V26.2393H242.496C242.618 26.2455 242.74 26.2258 242.854 26.1814C242.968 26.137 243.072 26.0691 243.158 25.982C243.244 25.8948 243.31 25.7905 243.353 25.6759C243.396 25.5612 243.414 25.4388 243.406 25.3166Z" fill="white"/>
<path d="M254.157 26.1854V28.3064H248.094V18.666H254.085V20.787H250.299V22.3808H253.744V24.4778H250.299V26.1854H254.157Z" fill="white"/>
<path d="M264.215 18.666V28.3064H262.01V24.4778H258.978V28.3064H256.773V18.666H258.978V22.3808H262.01V18.666H264.215Z" fill="white"/>
<path d="M274.688 18.666V28.3064H272.483V24.4778H269.451V28.3064H267.246V18.666H269.451V22.3808H272.483V18.666H274.688Z" fill="white"/>
<path d="M277.719 18.666H279.924V21.6918H281.368C281.824 21.6528 282.283 21.7091 282.717 21.857C283.15 22.0049 283.548 22.2412 283.886 22.551C284.223 22.8608 284.493 23.2373 284.677 23.6567C284.861 24.076 284.956 24.5291 284.956 24.9871C284.956 25.4451 284.861 25.8982 284.677 26.3175C284.493 26.7369 284.223 27.1134 283.886 27.4232C283.548 27.733 283.15 27.9693 282.717 28.1172C282.283 28.2652 281.824 28.3214 281.368 28.2825H277.719V18.666ZM281.368 26.2393C281.697 26.2393 282.012 26.1087 282.245 25.8761C282.477 25.6435 282.608 25.328 282.608 24.9991C282.608 24.6702 282.477 24.3547 282.245 24.1221C282.012 23.8895 281.697 23.7588 281.368 23.7588H279.924V26.2393H281.368ZM285.562 18.666H287.767V28.3064H285.562V18.666Z" fill="white"/>
<path d="M296.209 23.0687L292.488 28.3053H290.816V18.6649H293.021V23.8956L296.742 18.6649H298.396V28.3053H296.209V23.0687ZM292.56 16.0586H296.688V17.8561H292.56V16.0586Z" fill="white"/>
<path d="M313.688 18.666L310.902 25.4664C310.051 27.5515 308.661 28.4023 306.852 28.3064V26.2393C307.234 26.3194 307.633 26.2698 307.984 26.0984C308.336 25.927 308.62 25.6436 308.793 25.2927L305.695 18.666H307.9L309.788 22.8601L311.483 18.666H313.688Z" fill="white"/>
<path d="M323.473 18.666V28.3064H321.268V24.4778H318.236V28.3064H316.031V18.666H318.236V22.3808H321.268V18.666H323.473Z" fill="white"/>
<path d="M331.878 23.0698L328.158 28.3064H326.504V18.666H328.709V23.8966L332.43 18.666H334.083V28.3064H331.878V23.0698Z" fill="white"/>
<path d="M344.279 25.4844C344.279 27.192 342.889 28.3064 341.164 28.3064H337.113V18.666H340.888C342.572 18.666 343.932 19.7505 343.932 21.4161C343.941 21.7734 343.871 22.1282 343.726 22.4548C343.581 22.7814 343.365 23.0713 343.093 23.3035C343.463 23.5321 343.768 23.8536 343.976 24.2362C344.184 24.6187 344.289 25.049 344.279 25.4844ZM339.348 20.7271V22.4407H340.918C341.145 22.4407 341.363 22.3504 341.524 22.1897C341.684 22.0291 341.775 21.8111 341.775 21.5839C341.775 21.3567 341.684 21.1387 341.524 20.9781C341.363 20.8174 341.145 20.7271 340.918 20.7271H339.348ZM342.104 25.3166C342.112 25.1904 342.092 25.064 342.046 24.9462C342 24.8284 341.929 24.722 341.838 24.6343C341.746 24.5466 341.637 24.4797 341.518 24.4382C341.398 24.3967 341.271 24.3816 341.146 24.3939H339.348V26.2393H341.146C341.269 26.2482 341.393 26.2304 341.51 26.1872C341.626 26.144 341.732 26.0765 341.82 25.9891C341.908 25.9017 341.976 25.7964 342.02 25.6804C342.064 25.5645 342.082 25.4404 342.074 25.3166H342.104Z" fill="white"/>
<path d="M352.825 26.1854V28.3064H346.762V18.666H352.753V20.787H348.967V22.3808H352.412V24.4778H348.967V26.1854H352.825Z" fill="white"/>
<path d="M362.471 21.9656C362.47 22.4033 362.383 22.8364 362.214 23.2401C362.044 23.6437 361.797 24.0099 361.486 24.3174C361.174 24.6249 360.805 24.8677 360.399 25.0317C359.993 25.1957 359.559 25.2777 359.122 25.2729H357.678V28.3047H355.473V18.6643H359.122C359.559 18.6595 359.992 18.7413 360.398 18.9049C360.803 19.0686 361.172 19.3108 361.483 19.6177C361.795 19.9246 362.042 20.29 362.212 20.693C362.381 21.0959 362.469 21.5285 362.471 21.9656ZM360.266 21.9656C360.272 21.8047 360.245 21.6444 360.187 21.4941C360.129 21.3439 360.042 21.2068 359.93 21.091C359.818 20.9753 359.684 20.8832 359.536 20.8204C359.388 20.7576 359.229 20.7253 359.068 20.7254H357.624V23.2059H359.122C359.437 23.1918 359.735 23.0536 359.949 22.8213C360.163 22.589 360.277 22.2815 360.266 21.9656Z" fill="white"/>
<path d="M364.466 23.4814C364.449 22.8182 364.567 22.1583 364.813 21.542C365.059 20.9258 365.428 20.366 365.897 19.8968C366.366 19.4277 366.926 19.0589 367.542 18.813C368.158 18.5671 368.818 18.4492 369.481 18.4665C370.304 18.4527 371.117 18.6511 371.841 19.0425C372.565 19.4339 373.176 20.0052 373.616 20.7014L371.704 21.7798C371.473 21.3984 371.144 21.086 370.751 20.8752C370.358 20.6645 369.915 20.563 369.469 20.5815C369.09 20.5599 368.711 20.6197 368.356 20.7567C368.002 20.8938 367.681 21.105 367.415 21.3761C367.149 21.6473 366.944 21.9723 366.813 22.3292C366.683 22.686 366.631 23.0667 366.659 23.4455C366.631 23.8246 366.683 24.2054 366.814 24.5626C366.944 24.9198 367.149 25.245 367.415 25.5167C367.681 25.7883 368.002 26.0001 368.356 26.1378C368.71 26.2756 369.09 26.3361 369.469 26.3154C369.915 26.3352 370.358 26.2344 370.752 26.0235C371.145 25.8126 371.474 25.4995 371.704 25.1171L373.604 26.2196C373.164 26.9146 372.552 27.4847 371.828 27.8751C371.104 28.2654 370.292 28.4629 369.469 28.4484C368.811 28.4639 368.157 28.3462 367.545 28.1025C366.934 27.8588 366.378 27.4941 365.91 27.0302C365.443 26.5664 365.074 26.013 364.826 25.4032C364.578 24.7933 364.456 24.1397 364.466 23.4814Z" fill="white"/>
<path d="M381.405 23.0698L377.697 28.3064H376.043V18.666H378.248V23.8966L381.969 18.666H383.622V28.3064H381.417L381.405 23.0698Z" fill="white"/>
<path d="M393.119 20.787H390.638V28.3064H388.434V20.787H385.953V18.666H393.143L393.119 20.787Z" fill="white"/>
<path d="M401.524 26.1854V28.3064H395.461V18.666H401.452V20.787H397.66V22.3808H401.105V24.4778H397.66V26.1854H401.524Z" fill="white"/>
<path d="M410.651 20.787H408.17V28.3064H405.965V20.787H403.461V18.666H410.651V20.787Z" fill="white"/>
</svg>
